<svg xmlns="http://www.w3.org/2000/svg" viewBox="0 0 50 50"><defs><style>.cls-1{fill:#231f20;}</style></defs><title>Recurso 39</title><g id="Capa_2" data-name="Capa 2"><g id="Layer_3" data-name="Layer 3"><path class="cls-1" d="M25,3.15A21.87,21.87,0,0,1,46.85,25a21.37,21.37,0,0,1-.16,2.64c0,.27-.06.52-.1.76v.05a.5.5,0,0,0,0,.12v.06A21.77,21.77,0,0,1,30.28,46.2q-.45.12-.93.21l-.73.14a21.39,21.39,0,0,1-3.62.3,21.85,21.85,0,0,1,0-43.7M25,0a25,25,0,0,0,0,50,24.64,24.64,0,0,0,4.15-.35c.28,0,.55-.1.83-.15s.71-.15,1.07-.24a25,25,0,0,0,18.6-20.12,1.7,1.7,0,0,0,0-.22c.05-.31.09-.61.13-.92A24.66,24.66,0,0,0,50,25,25,25,0,0,0,25,0Z"/><path class="cls-1" d="M42.84,25a.85.85,0,0,1-.81.89H37.21A8.38,8.38,0,0,0,38,24.15H42A.85.85,0,0,1,42.84,25Zm-30.75-.88H8a.89.89,0,0,0,0,1.77h4.83A8.16,8.16,0,0,1,12.09,24.15ZM38.3,20.66a8.2,8.2,0,0,0-7-7.59A7.43,7.43,0,0,0,25,15.53h0A7.45,7.45,0,0,0,19.5,13a7,7,0,0,0-.79,0,8.2,8.2,0,0,0-7,7.59,9.14,9.14,0,0,0,.35,3.49h8.45a.81.81,0,0,1,.73.49l.42.91L22.79,17a.83.83,0,0,1,.78-.76h0a.83.83,0,0,1,.8.73l1.9,11.6.83-8.49a.85.85,0,0,1,.79-.79h0a.84.84,0,0,1,.8.75l.91,6.49.7-1.86a.79.79,0,0,1,.75-.55H38A9.14,9.14,0,0,0,38.3,20.66Zm-6.67,5.26L30,30.19a.81.81,0,0,1-.85.54.84.84,0,0,1-.7-.74l-.41-2.91-.78,7.86a.83.83,0,0,1-.77.79h0a.83.83,0,0,1-.8-.73l-2-12.23-.75,5.83a.85.85,0,0,1-.67.75.8.8,0,0,1-.86-.48l-1.37-3H12.83A8.84,8.84,0,0,0,14,27.52l9.89,10.86a1.51,1.51,0,0,0,2.26,0L36,27.53a8.19,8.19,0,0,0,1.17-1.61Z"/></g></g></svg>