<?xml version="1.0" ?><!DOCTYPE svg  PUBLIC '-//W3C//DTD SVG 1.1//EN'  'http://www.w3.org/Graphics/SVG/1.1/DTD/svg11.dtd'><svg height="64px" style="fill-rule:evenodd;clip-rule:evenodd;stroke-linejoin:round;stroke-miterlimit:2;" version="1.1" width="64px" xml:space="preserve" xmlns="http://www.w3.org/2000/svg" xmlns:serif="http://www.serif.com/" xmlns:xlink="http://www.w3.org/1999/xlink"><path d="M28.501,18l-15.001,0c-0.828,0 -1.5,0.672 -1.5,1.5l0,26c0,0.828 0.672,1.5 1.5,1.5c4.541,0 23,0 23,0c0.276,-0 0.5,-0.224 0.5,-0.5l0,-2.5l13.5,0c0.828,-0 1.5,-0.672 1.5,-1.5l0,-26c-0,-0.398 -0.158,-0.779 -0.439,-1.061c-0.282,-0.281 -0.663,-0.439 -1.061,-0.439c-4.363,0 -21.5,-0.007 -21.5,-0.007c-0.132,0 -0.26,0.053 -0.353,0.147c-0.094,0.093 -0.147,0.221 -0.147,0.353l0.001,2.507Zm7.499,28l0,-27l-22.5,0c-0.276,0 -0.5,0.224 -0.5,0.5c0,-0 0,26 0,26c0,0.276 0.224,0.5 0.5,0.5c0,0 22.5,0 22.5,0Zm1,-6l0,3l13.5,-0c0.276,-0 0.5,-0.224 0.5,-0.5c-0,0 0,-26 -0,-26c-0,-0.133 -0.053,-0.26 -0.146,-0.354c-0.094,-0.093 -0.221,-0.146 -0.354,-0.146c-3.314,0 -13.997,-0.004 -18.943,-0.006l4.963,2.007c0.267,0.01 0.48,0.23 0.48,0.499l0,0.5l11.5,0c0.276,0 0.5,0.224 0.5,0.5l0,7c-0,0.276 -0.224,0.5 -0.5,0.5l-11.5,0l0,1l10.502,0c0.276,0 0.5,0.224 0.5,0.5c0,0.276 -0.224,0.5 -0.5,0.5l-10.502,0l0,1l7.5,0c0.276,0 0.5,0.224 0.5,0.5c0,0.276 -0.224,0.5 -0.5,0.5l-7.5,0l0,1l11.5,-0c0.276,-0 0.5,0.224 0.5,0.5l0,7c-0,0.276 -0.224,0.5 -0.5,0.5l-11.5,0Zm-3,-9.5c0,-0.276 -0.224,-0.5 -0.5,-0.5l-17.998,0c-0.276,0 -0.5,0.224 -0.5,0.5l0,11c0,0.276 0.224,0.5 0.5,0.5l17.998,-0c0.276,-0 0.5,-0.224 0.5,-0.5l0,-11Zm-1,0.5l0,10c0,-0 -16.998,-0 -16.998,-0c0,0 0,-10 0,-10l16.998,-0Zm15,2l0,6c0,0 -11,0 -11,0c0,0 0,-6 0,-6l11,-0Zm-14,-9.5c0,-0.276 -0.224,-0.5 -0.5,-0.5l-18,0c-0.276,0 -0.5,0.224 -0.5,0.5l0,3c0,0.276 0.224,0.5 0.5,0.5l18,0c0.276,0 0.5,-0.224 0.5,-0.5l0,-3Zm14,-3.5l0,6c0,0 -11,0 -11,0c0,0 0,-6 0,-6l11,-0Zm-15,4l0,2c0,0 -17,0 -17,0c0,-0 0,-2 0,-2l17,0Zm-3.5,-6l4.35,0l-4.35,-1.759l-0,1.759Z"/></svg>